<?xml version="1.0" encoding="UTF-8" standalone="no"?>
<!DOCTYPE svg PUBLIC "-//W3C//DTD SVG 1.1//EN" "http://www.w3.org/Graphics/SVG/1.1/DTD/svg11.dtd">
<!-- Generated by Microsoft Visio, SVG Export airport_icon.svg Page-1 -->
<svg xmlns="http://www.w3.org/2000/svg" xmlns:xlink="http://www.w3.org/1999/xlink" xmlns:ev="http://www.w3.org/2001/xml-events"
		xmlns:v="http://schemas.microsoft.com/visio/2003/SVGExtensions/" width="0.870033in" height="0.884829in"
		viewBox="0 0 62.6424 63.7077" xml:space="preserve" color-interpolation-filters="sRGB" class="st2">
	<v:documentProperties v:langID="2057" v:metric="true" v:viewMarkup="false"/>

	<style type="text/css">
	<![CDATA[
		.st1 {stroke:#000000;stroke-linecap:round;stroke-linejoin:round;stroke-width:3}
		.st2 {fill:none;fill-rule:evenodd;font-size:12px;overflow:visible;stroke-linecap:square;stroke-miterlimit:3}
	]]>
	</style>

	<g v:mID="0" v:index="1" v:groupContext="foregroundPage">
		<title>Page-1</title>
		<v:pageProperties v:drawingScale="0.0393701" v:pageScale="0.0393701" v:drawingUnits="24" v:shadowOffsetX="8.50394"
				v:shadowOffsetY="-8.50394"/>
		<g id="shape33-1" v:mID="33" v:groupContext="shape" transform="translate(1.5,-1.5)">
			<title>Sheet.33</title>
			<path d="M59.64 37.76 A77.5164 27.7727 -180 0 0 53.69 37.01 A77.5164 27.7727 -0 0 0 24.69 35.86" class="st1"/>
			<path d="M53.69 37.01 L53.69 63.71 L47.72 63.71 L39.27 63.71 L30.82 63.71 L24.69 63.71 L22.37 63.71 L13.92 63.71 L7.9
						 63.71 L1.88 63.71" class="st1"/>
			<path d="M53.69 63.71 L59.64 63.71" class="st1"/>
			<path d="M47.72 48.83 L39.27 48.83 L30.82 48.83 L24.69 48.83" class="st1"/>
			<path d="M47.72 41.63 L47.72 48.83 L47.72 57.64 L47.72 63.71" class="st1"/>
			<path d="M47.72 57.64 L39.27 57.64 L30.82 57.64 L24.69 57.64" class="st1"/>
			<path d="M39.27 41.63 L39.27 48.83 L39.27 57.64 L39.27 63.71" class="st1"/>
			<path d="M30.82 41.63 L30.82 48.83 L30.82 57.64 L30.82 63.71" class="st1"/>
			<path d="M12.89 3 L12.89 13.02" class="st1"/>
			<path d="M0 18.89 L0 18.86 A5.84454 5.84454 0 0 1 5.84 13.02 L19.94 13.02 A5.84454 5.84454 0 0 1 25.78 18.86 L25.78 18.89"
					class="st1"/>
			<path d="M21.38 33.3 L4.3 33.3" class="st1"/>
			<path d="M18.05 18.89 L15.47 33.3" class="st1"/>
			<path d="M7.74 18.89 L10.31 33.3" class="st1"/>
			<path d="M21.49 32.96 L25.78 18.89 L0 18.89 L4.3 32.96" class="st1"/>
			<path d="M18.28 33.94 L18.28 62.05" class="st1"/>
			<path d="M7.5 33.94 L7.5 62.05" class="st1"/>
		</g>
	</g>
</svg>
